<svg xmlns="http://www.w3.org/2000/svg" xmlns:xlink="http://www.w3.org/1999/xlink" width="24" height="24" viewBox="0 0 24 24">
  <defs>
    <clipPath id="clip-path">
      <rect id="Rectangle_118" data-name="Rectangle 118" width="24" height="24" transform="translate(95 103)" fill="#fff" stroke="#707070" stroke-width="1"/>
    </clipPath>
  </defs>
  <g id="lang-w" transform="translate(-95 -103)" clip-path="url(#clip-path)">
    <path id="global" d="M12,0A12,12,0,1,0,24,12,12.014,12.014,0,0,0,12,0Zm-.7,5.89a16.406,16.406,0,0,1-3.14-.441c.161-.383.337-.75.526-1.1A6.072,6.072,0,0,1,11.3,1.557Zm0,1.407v4H6.905a17.671,17.671,0,0,1,.768-4.52A17.8,17.8,0,0,0,11.3,7.3Zm0,5.406v4a17.8,17.8,0,0,0-3.624.521,17.671,17.671,0,0,1-.768-4.52Zm0,5.407v4.333a6.072,6.072,0,0,1-2.614-2.794c-.189-.348-.364-.716-.526-1.1A16.4,16.4,0,0,1,11.3,18.11Zm1.406,0a16.406,16.406,0,0,1,3.14.441c-.161.383-.337.75-.526,1.1A6.072,6.072,0,0,1,12.7,22.443Zm0-1.407v-4h4.392a17.671,17.671,0,0,1-.768,4.52A17.8,17.8,0,0,0,12.7,16.7Zm0-5.406v-4a17.8,17.8,0,0,0,3.624-.521,17.671,17.671,0,0,1,.768,4.52Zm0-5.407V1.557a6.072,6.072,0,0,1,2.614,2.794c.189.348.364.716.526,1.1A16.406,16.406,0,0,1,12.7,5.89Zm3.85-2.21a10.675,10.675,0,0,0-1.138-1.709A10.606,10.606,0,0,1,19.166,4.2a13.287,13.287,0,0,1-1.962.849A14.247,14.247,0,0,0,16.553,3.68Zm-9.106,0A14.247,14.247,0,0,0,6.8,5.054,13.306,13.306,0,0,1,4.834,4.2a10.606,10.606,0,0,1,3.75-2.233A10.679,10.679,0,0,0,7.447,3.68ZM6.32,6.375A18.83,18.83,0,0,0,5.5,11.3H1.43a10.544,10.544,0,0,1,2.4-6.039A14.463,14.463,0,0,0,6.32,6.375ZM5.5,12.7a18.829,18.829,0,0,0,.823,4.922,14.463,14.463,0,0,0-2.486,1.117A10.544,10.544,0,0,1,1.43,12.7Zm1.3,6.243a14.247,14.247,0,0,0,.651,1.373,10.688,10.688,0,0,0,1.138,1.709A10.6,10.6,0,0,1,4.835,19.8,13.287,13.287,0,0,1,6.8,18.946Zm9.757,1.373a14.247,14.247,0,0,0,.651-1.373,13.306,13.306,0,0,1,1.962.849,10.606,10.606,0,0,1-3.75,2.233A10.679,10.679,0,0,0,16.553,20.32Zm1.127-2.695A18.83,18.83,0,0,0,18.5,12.7H22.57a10.544,10.544,0,0,1-2.4,6.039A14.463,14.463,0,0,0,17.68,17.625ZM18.5,11.3a18.829,18.829,0,0,0-.823-4.922,14.463,14.463,0,0,0,2.486-1.117,10.544,10.544,0,0,1,2.4,6.039Zm0,0" transform="translate(95 103)" fill="#fff"/>
  </g>
</svg>
