<svg id="logo-w" xmlns="http://www.w3.org/2000/svg" xmlns:xlink="http://www.w3.org/1999/xlink" width="240" height="80" viewBox="0 0 240 80">
  <defs>
    <linearGradient id="linear-gradient" x1="0.034" y1="0.798" x2="0.908" y2="0.046" gradientUnits="objectBoundingBox">
      <stop offset="0" stop-color="#fe9900"/>
      <stop offset="1" stop-color="#ec4215"/>
    </linearGradient>
    <linearGradient id="linear-gradient-2" x1="0.108" y1="0.905" x2="0.897" y2="0.019" xlink:href="#linear-gradient"/>
    <linearGradient id="linear-gradient-3" x1="0.038" y1="0.808" x2="0.902" y2="0.037" xlink:href="#linear-gradient"/>
    <linearGradient id="linear-gradient-4" x1="0.163" y1="1.033" x2="0.88" y2="-0.033" xlink:href="#linear-gradient"/>
    <linearGradient id="linear-gradient-5" x1="0.085" y1="0.863" x2="0.887" y2="0.005" xlink:href="#linear-gradient"/>
    <linearGradient id="linear-gradient-6" x1="0.279" y1="1.358" x2="0.97" y2="0.179" xlink:href="#linear-gradient"/>
    <linearGradient id="linear-gradient-7" x1="-0.141" y1="0.614" x2="0.769" y2="-0.065" xlink:href="#linear-gradient"/>
    <linearGradient id="linear-gradient-8" x1="-17.104" y1="1.184" x2="32.098" y2="-0.728" xlink:href="#linear-gradient"/>
    <linearGradient id="linear-gradient-9" x1="-3.691" y1="1.301" x2="5.333" y2="-0.61" xlink:href="#linear-gradient"/>
    <linearGradient id="linear-gradient-10" x1="-3.977" y1="1.638" x2="3.586" y2="-0.221" xlink:href="#linear-gradient"/>
  </defs>
  <rect id="Rectangle_193" data-name="Rectangle 193" width="240" height="80" fill="#fff" opacity="0.6"/>
  <g id="Group_107" data-name="Group 107" transform="translate(10.535 -247)">
    <g id="Group_82" data-name="Group 82" transform="translate(92.771 260)">
      <path id="Path_105" data-name="Path 105" d="M322.829,306.8a4.364,4.364,0,0,0,.462.61c.023-.1.047-.192.074-.3.13-.517.31-1.139.535-1.849s.506-1.5.869-2.345.772-1.75,1.264-2.682a29.4,29.4,0,0,1,1.675-2.863c.325-.475.647-.966,1.007-1.438.178-.238.35-.482.536-.718l.574-.7c.377-.475.8-.915,1.206-1.378.428-.439.848-.891,1.3-1.316s.9-.846,1.379-1.229l.706-.588c.236-.194.485-.37.726-.555l.725-.543.749-.495c.249-.162.491-.331.742-.483l.752-.443c.25-.144.492-.3.742-.43s.5-.257.75-.381l.736-.367.736-.32c.959-.441,1.9-.761,2.762-1.083.879-.266,1.675-.535,2.407-.681l1.015-.231.45-.1.415-.071c.524-.094.939-.148,1.22-.193l.412-.063V282.01c0-.041,0-.083,0-.124s-.006-.082-.008-.123C330.034,285.553,324.27,301.367,322.829,306.8Z" transform="translate(-322.103 -277.565)" fill="url(#linear-gradient)"/>
      <path id="Path_106" data-name="Path 106" d="M356.708,327.189v-2.168l-1.262.254c-.438.083-.958.233-1.561.378-.3.069-.616.172-.95.271s-.686.2-1.046.323l-1.123.395c-.388.138-.778.308-1.185.468s-.813.351-1.232.539-.839.4-1.264.612-.853.444-1.28.686-.855.494-1.281.757c-.854.522-1.691,1.1-2.512,1.7q-.611.457-1.209.928c-.388.326-.789.633-1.16.97-.76.652-1.473,1.334-2.148,2.008s-1.3,1.355-1.866,2.02-1.087,1.309-1.553,1.914a35.733,35.733,0,0,0-2.08,3.045c-.252.414-.431.733-.544.942a3.617,3.617,0,0,0,.567.22l.021.007C333.015,341.657,340.727,328.363,356.708,327.189Z" transform="translate(-329.062 -312.478)" fill="url(#linear-gradient-2)"/>
      <path id="Path_107" data-name="Path 107" d="M352.237,293.564v-2.069l-1.588.364-.407.093-.441.126-.992.285-.547.159-.57.2-1.229.427c-.837.348-1.757.695-2.686,1.162l-.712.34-.711.386-.726.394c-.243.136-.478.29-.721.436l-.73.448c-.244.153-.478.324-.719.487l-.725.5-.706.538c-.234.183-.477.357-.707.549l-.688.581c-.468.378-.9.807-1.342,1.214s-.855.853-1.278,1.281c-.4.451-.818.879-1.192,1.342l-.568.683c-.187.228-.36.465-.539.7-.362.457-.687.933-1.015,1.395-.637.936-1.224,1.863-1.728,2.771s-.953,1.783-1.339,2.6a34.533,34.533,0,0,0-1.6,4.077c-.043.136-.082.262-.119.382a4.1,4.1,0,0,0,.353.315C327.653,312,334.392,296.653,352.237,293.564Z" transform="translate(-324.592 -285.419)" fill="url(#linear-gradient-3)"/>
      <path id="Path_108" data-name="Path 108" d="M336.294,363.578a27.626,27.626,0,0,1,2.157-2.319c.476-.451,1-.934,1.585-1.408s1.207-.971,1.879-1.445c.34-.232.679-.478,1.037-.7l.536-.35.556-.33c.743-.444,1.521-.857,2.306-1.254.8-.373,1.6-.729,2.412-1.041s1.622-.574,2.414-.8,1.572-.4,2.312-.551c.372-.065.732-.137,1.083-.19l1.019-.125c.653-.074,1.256-.1,1.788-.121s1-.023,1.378-.01c.243.005.449.018.622.028v-2.112c-1.563.055-14.618.894-24.617,13.47a3.626,3.626,0,0,0,.877.121l.112-.157C335.873,364.116,336.046,363.868,336.294,363.578Z" transform="translate(-331.734 -333.32)" fill="url(#linear-gradient-4)"/>
      <path id="Path_109" data-name="Path 109" d="M328.782,336.184c.1-.219.237-.546.448-.942s.468-.878.782-1.42.686-1.145,1.13-1.776.935-1.31,1.491-2,1.153-1.412,1.823-2.112c.337-.348.675-.707,1.036-1.051l.541-.524.567-.507c.375-.345.779-.662,1.172-1s.81-.642,1.223-.955c.842-.6,1.7-1.187,2.574-1.712.435-.266.871-.523,1.317-.749s.877-.466,1.318-.669.864-.423,1.3-.587.852-.355,1.274-.5.822-.3,1.221-.425l1.153-.353c.744-.208,1.433-.375,2.049-.489s1.15-.223,1.6-.277.8-.094,1.034-.123l.267-.029v-1.583c-1.052.053-16.409,1.13-25.879,19.5a3.844,3.844,0,0,0,.537.336Z" transform="translate(-326.455 -305.525)" fill="url(#linear-gradient-5)"/>
      <path id="Path_110" data-name="Path 110" d="M362.875,362.489c-.378.016-.834.071-1.358.115s-1.112.136-1.752.24l-.995.179-1.056.234c-.721.174-1.478.375-2.25.622s-1.561.525-2.35.839-1.577.671-2.355,1.045-1.541.78-2.276,1.209-1.445.871-2.122,1.315a39.179,39.179,0,0,0-3.533,2.666c-.987.841-1.767,1.589-2.294,2.132-.326.333-.556.586-.685.731h23.636V362.461Zm-3.184,9.721s1.718-9.948-18.486,1.369c0,0,11.749-9.793,17.8-7.391C359,366.188,363,367.4,359.69,372.21Z" transform="translate(-335.84 -342.695)" fill="url(#linear-gradient-6)"/>
      <path id="Path_111" data-name="Path 111" d="M345.539,261.3a3.721,3.721,0,0,0-2.779-1.3h-23.7v26.673a4.831,4.831,0,0,0,.624,2.4C323.344,268.837,341.51,262.472,345.539,261.3Z" transform="translate(-319.064 -260)" fill="url(#linear-gradient-7)"/>
    </g>
    <g id="Group_86" data-name="Group 86" transform="translate(42.465 298.589)">
      <g id="Group_83" data-name="Group 83" transform="translate(129.866 0)">
        <path id="Path_112" data-name="Path 112" d="M715.934,462.389v-.31a2.2,2.2,0,0,1,4.393,0v.31a2.2,2.2,0,0,1-4.393,0Zm3.9,0v-.3a1.708,1.708,0,0,0-3.407,0v.3a1.7,1.7,0,0,0,3.407,0Zm-2.552.886v-2.1h1.051a.683.683,0,0,1,.746.676.625.625,0,0,1-.414.624l.48.8h-.58l-.414-.742h-.345v.742Zm.524-1.134h.34c.183,0,.384-.035.384-.288,0-.179-.126-.288-.349-.288h-.375Z" transform="translate(-715.934 -460.038)" fill="#46474a"/>
      </g>
      <g id="Group_85" data-name="Group 85" transform="translate(0 3.676)">
        <g id="Group_84" data-name="Group 84" transform="translate(0 0.016)">
          <path id="Path_113" data-name="Path 113" d="M42.73,491.494V480.028h1.333v11.466Z" transform="translate(-42.73 -479.863)" fill="url(#linear-gradient-8)"/>
          <path id="Path_114" data-name="Path 114" d="M64.166,483.369a3.211,3.211,0,0,1-1.188,2.678,5.382,5.382,0,0,1-3.4.937H58.229v4.509H56.9V480.028h2.972Q64.166,480.028,64.166,483.369Zm-5.937,2.47h1.2a4.458,4.458,0,0,0,2.564-.573,2.109,2.109,0,0,0,.792-1.835,1.978,1.978,0,0,0-.745-1.694,3.893,3.893,0,0,0-2.321-.557h-1.49Z" transform="translate(-54.163 -479.863)" fill="url(#linear-gradient-9)"/>
          <path id="Path_115" data-name="Path 115" d="M106.236,480.367a3.749,3.749,0,0,0-2.984,1.259,5.077,5.077,0,0,0-1.094,3.447,5.179,5.179,0,0,0,1.055,3.478,3.75,3.75,0,0,0,3.008,1.227,10.272,10.272,0,0,0,2.737-.431v1.168a8.426,8.426,0,0,1-2.941.447,4.975,4.975,0,0,1-3.909-1.537,6.329,6.329,0,0,1-1.376-4.368,6.89,6.89,0,0,1,.663-3.106,4.756,4.756,0,0,1,1.913-2.055,5.792,5.792,0,0,1,2.945-.722,7.1,7.1,0,0,1,3.152.659l-.565,1.145A6.077,6.077,0,0,0,106.236,480.367Z" transform="translate(-89.542 -479.175)" fill="url(#linear-gradient-10)"/>
        </g>
        <path id="Path_116" data-name="Path 116" d="M165.207,480.367a3.748,3.748,0,0,0-2.984,1.259,5.077,5.077,0,0,0-1.094,3.447,5.177,5.177,0,0,0,1.055,3.478,3.749,3.749,0,0,0,3.007,1.227,10.274,10.274,0,0,0,2.737-.431v1.168a8.427,8.427,0,0,1-2.941.447,4.975,4.975,0,0,1-3.909-1.537,6.33,6.33,0,0,1-1.376-4.368,6.889,6.889,0,0,1,.663-3.106,4.757,4.757,0,0,1,1.913-2.055,5.792,5.792,0,0,1,2.945-.722,7.1,7.1,0,0,1,3.153.659l-.565,1.145A6.076,6.076,0,0,0,165.207,480.367Z" transform="translate(-137.137 -479.159)" fill="#46474a"/>
        <path id="Path_117" data-name="Path 117" d="M219.465,484.991a6.313,6.313,0,0,1-1.392,4.329,4.9,4.9,0,0,1-3.87,1.576,4.956,4.956,0,0,1-3.909-1.549,6.364,6.364,0,0,1-1.376-4.372,6.284,6.284,0,0,1,1.38-4.341,4.991,4.991,0,0,1,3.921-1.541,4.885,4.885,0,0,1,3.859,1.569A6.306,6.306,0,0,1,219.465,484.991Zm-9.136,0a5.441,5.441,0,0,0,.992,3.533,4.052,4.052,0,0,0,5.76,0,6.881,6.881,0,0,0,0-7.047,3.471,3.471,0,0,0-2.866-1.2,3.538,3.538,0,0,0-2.9,1.2A5.385,5.385,0,0,0,210.329,484.991Z" transform="translate(-176.858 -479.093)" fill="#46474a"/>
        <path id="Path_118" data-name="Path 118" d="M273.184,486.726v4.768h-1.333V480.028H275a4.948,4.948,0,0,1,3.117.808,2.929,2.929,0,0,1,1.008,2.431,3.045,3.045,0,0,1-2.306,3.074l3.113,5.153h-1.576l-2.776-4.768Zm0-1.145h1.827a3.156,3.156,0,0,0,2.07-.561,2.087,2.087,0,0,0,.659-1.682,1.915,1.915,0,0,0-.67-1.639,3.635,3.635,0,0,0-2.153-.5h-1.733Z" transform="translate(-227.652 -479.848)" fill="#46474a"/>
        <path id="Path_119" data-name="Path 119" d="M329.249,483.369a3.211,3.211,0,0,1-1.188,2.678,5.382,5.382,0,0,1-3.4.937h-1.349v4.509h-1.333V480.028h2.972Q329.249,480.028,329.249,483.369Zm-5.937,2.47h1.2a4.458,4.458,0,0,0,2.565-.573,2.109,2.109,0,0,0,.792-1.835,1.978,1.978,0,0,0-.745-1.694,3.893,3.893,0,0,0-2.321-.557h-1.49Z" transform="translate(-268.11 -479.848)" fill="#46474a"/>
        <path id="Path_120" data-name="Path 120" d="M377.468,484.991a6.312,6.312,0,0,1-1.392,4.329,4.894,4.894,0,0,1-3.87,1.576,4.955,4.955,0,0,1-3.909-1.549,6.362,6.362,0,0,1-1.376-4.372,6.284,6.284,0,0,1,1.38-4.341,4.992,4.992,0,0,1,3.921-1.541,4.885,4.885,0,0,1,3.859,1.569A6.307,6.307,0,0,1,377.468,484.991Zm-9.136,0a5.442,5.442,0,0,0,.992,3.533,4.052,4.052,0,0,0,5.76,0,6.881,6.881,0,0,0,0-7.047,3.471,3.471,0,0,0-2.866-1.2,3.539,3.539,0,0,0-2.9,1.2A5.386,5.386,0,0,0,368.332,484.991Z" transform="translate(-304.381 -479.093)" fill="#46474a"/>
        <path id="Path_121" data-name="Path 121" d="M431.187,486.726v4.768h-1.333V480.028H433a4.948,4.948,0,0,1,3.117.808,2.929,2.929,0,0,1,1.008,2.431,3.045,3.045,0,0,1-2.306,3.074l3.113,5.153h-1.576l-2.776-4.768Zm0-1.145h1.827a3.155,3.155,0,0,0,2.07-.561,2.087,2.087,0,0,0,.659-1.682,1.915,1.915,0,0,0-.67-1.639,3.636,3.636,0,0,0-2.153-.5h-1.733Z" transform="translate(-355.175 -479.848)" fill="#46474a"/>
        <path id="Path_122" data-name="Path 122" d="M487.764,491.3l-1.427-3.647h-4.6L480.33,491.3h-1.349l4.533-11.513h1.122l4.509,11.513Zm-1.843-4.847-1.333-3.553q-.259-.674-.533-1.655a14.855,14.855,0,0,1-.494,1.655l-1.349,3.553Z" transform="translate(-394.825 -479.651)" fill="#46474a"/>
        <path id="Path_123" data-name="Path 123" d="M535.882,491.494h-1.333V481.212h-3.631v-1.184h8.6v1.184h-3.631Z" transform="translate(-436.743 -479.848)" fill="#46474a"/>
        <path id="Path_124" data-name="Path 124" d="M582.728,491.494V480.028h1.333v11.466Z" transform="translate(-478.558 -479.848)" fill="#46474a"/>
        <path id="Path_125" data-name="Path 125" d="M607.442,484.991a6.312,6.312,0,0,1-1.392,4.329,4.895,4.895,0,0,1-3.87,1.576,4.955,4.955,0,0,1-3.909-1.549,6.362,6.362,0,0,1-1.376-4.372,6.283,6.283,0,0,1,1.38-4.341,4.991,4.991,0,0,1,3.921-1.541,4.885,4.885,0,0,1,3.859,1.569A6.307,6.307,0,0,1,607.442,484.991Zm-9.136,0a5.441,5.441,0,0,0,.992,3.533,4.052,4.052,0,0,0,5.76,0,6.88,6.88,0,0,0,0-7.047,3.471,3.471,0,0,0-2.866-1.2,3.538,3.538,0,0,0-2.9,1.2A5.385,5.385,0,0,0,598.306,484.991Z" transform="translate(-489.991 -479.093)" fill="#46474a"/>
        <path id="Path_126" data-name="Path 126" d="M667.783,491.494h-1.521L660,481.871h-.063q.125,1.694.125,3.106v6.517h-1.231V480.028h1.506l6.25,9.583h.063q-.016-.212-.071-1.361t-.039-1.643v-6.58h1.247Z" transform="translate(-539.977 -479.848)" fill="#46474a"/>
      </g>
    </g>
  </g>
</svg>
